<?xml version="1.0" encoding="UTF-8"?>
<svg id="Capa_1" data-name="Capa 1" xmlns="http://www.w3.org/2000/svg" viewBox="0 0 331.83 213.19">
  <defs>
    <style>
      .cls-1 {
        fill: #fff;
        stroke-width: 0px;
      }
    </style>
  </defs>
  <path class="cls-1" d="M331.83,5.32v202.36h-52.75v-83.17c-1.03-.6-1.35-.94-1.67-.95-16.91-.25-13.4-2.07-13.57,12.52-.25,21.35-.06,42.71-.06,64.07v7.61h-53.09V5.3h53.06v72.49h14.88V5.32h53.2Z"/>
  <path class="cls-1" d="M117.06,65.87h-49.52c-.41-7.82-.81-15.37-1.19-22.92-.2-4.08-1.8-7.16-6.22-7.53-4.62-.39-7.4,2.1-8.92,6.41-4.37,12.4-.37,25.38,10.55,32.68,9.5,6.35,19.07,12.63,28.87,18.52,21.37,12.85,30.59,32.19,30.38,56.44-.09,9.68-.86,19.39-2.03,29-1.23,10.04-6.65,17.97-15.37,22.96-26.95,15.4-54.34,15.65-81.59.89-9.87-5.35-16.34-14.02-17.8-25.29-1.75-13.51-2.55-27.15-3.8-41.24h50.96c0,4.12-.03,8.23,0,12.33.06,7.06-.05,14.12.32,21.16.24,4.62,2.57,8.05,7.71,8.3,4.8.23,7.85-2.24,9.45-6.72,5.03-14.12-.07-31.3-12.3-40.06-10.38-7.43-20.83-14.81-31.59-21.67C8.81,98.84.69,83.96.09,65.31c-.35-10.77.23-21.81,2.32-32.35C5.85,15.59,18.92,7.03,34.95,2.92c16.34-4.19,32.85-3.82,49.13.83,18.81,5.37,31.24,16.22,31.78,37.28.21,8.13.77,16.24,1.19,24.84Z"/>
  <path class="cls-1" d="M136.23,5.18h52.74v202.42h-52.74V5.18Z"/>
</svg>