<?xml version="1.0" standalone="no"?>
<!DOCTYPE svg PUBLIC "-//W3C//DTD SVG 20010904//EN"
 "http://www.w3.org/TR/2001/REC-SVG-20010904/DTD/svg10.dtd">
<svg version="1.0" xmlns="http://www.w3.org/2000/svg"
 width="100.000000pt" height="100.000000pt" viewBox="0 0 100.000000 100.000000"
 preserveAspectRatio="xMidYMid meet">

<g transform="translate(0.000000,100.000000) scale(0.100000,-0.100000)"
fill="#000000" stroke="none">
<path d="M316 980 c-44 -14 -93 -66 -104 -114 -15 -58 -7 -254 11 -275 32 -37
58 -110 55 -153 -3 -41 -5 -43 -63 -71 -160 -74 -202 -111 -212 -186 l-6 -41
267 0 266 0 58 -58 c107 -109 233 -112 337 -7 102 101 102 229 0 330 -95 96
-220 101 -320 13 -38 -33 -47 -37 -65 -28 -15 8 -20 21 -20 49 0 40 31 123 57
153 11 13 16 50 19 140 6 167 -8 192 -134 248 -28 12 -105 12 -146 0z"/>
</g>
</svg>
