<?xml version="1.0" encoding="UTF-8"?>
<svg id="Capa_1" data-name="Capa 1" xmlns="http://www.w3.org/2000/svg" viewBox="0 0 36.36 36.43">
  <defs>
    <style>
      .cls-1 {
        fill: #384b59;
      }

      .cls-1, .cls-2 {
        stroke-width: 0px;
      }

      .cls-2 {
        fill: #ffbd5c;
      }
    </style>
  </defs>
  <path class="cls-2" d="M17.11,0c.71,0,1.42,0,2.13,0,.09.02.18.05.27.06,2.84.2,5.51,1,7.94,2.5,5.51,3.42,8.5,8.4,8.88,14.89.19,3.3-.53,6.44-2.12,9.34-2.83,5.13-7.13,8.26-12.9,9.36-.68.13-1.38.19-2.07.28h-2.13c-.09-.02-.18-.05-.27-.06-2.23-.15-4.37-.68-6.37-1.67C4.89,31.95,1.48,27.51.29,21.38.15,20.69.09,19.98,0,19.28c0-.71,0-1.42,0-2.13.02-.1.05-.2.06-.31.2-2.84,1.01-5.49,2.49-7.91C5.44,4.2,9.6,1.3,15.05.28,15.73.16,16.42.09,17.11,0ZM18.21,20.48s0-.04,0-.06c-1.14,0-2.27,0-3.41,0-3.27.02-5.75,2.2-6.19,5.45-.13,1,.08,1.9.87,2.58.94.82,1.99,1.49,3.13,2,2.37,1.07,4.83,1.43,7.41,1.07,2.58-.36,4.84-1.4,6.83-3.07.62-.52.91-1.23.9-2.04-.03-3.03-2.34-5.64-5.36-5.91-1.38-.12-2.79-.02-4.18-.02ZM24.19,11.42c-.08-3.38-2.81-6.05-6.09-5.96-3.35.09-6,2.79-5.93,6.05.06,3.38,2.81,6.07,6.11,5.99,3.32-.08,6-2.84,5.92-6.08Z"/>
  <path class="cls-1" d="M18.21,20.48c1.4,0,2.8-.1,4.18.02,3.01.27,5.33,2.88,5.36,5.91,0,.81-.28,1.52-.9,2.04-1.98,1.67-4.25,2.71-6.83,3.07-2.57.36-5.04,0-7.41-1.07-1.14-.51-2.18-1.18-3.13-2-.79-.68-1-1.58-.87-2.58.43-3.24,2.92-5.43,6.19-5.45,1.14,0,2.27,0,3.41,0,0,.02,0,.04,0,.06Z"/>
  <path class="cls-1" d="M24.19,11.42c.08,3.24-2.6,6-5.92,6.08-3.3.08-6.05-2.61-6.11-5.99-.06-3.26,2.59-5.96,5.93-6.05,3.29-.09,6.01,2.58,6.09,5.96Z"/>
</svg>