<?xml version="1.0" standalone="no"?>
<!DOCTYPE svg PUBLIC "-//W3C//DTD SVG 20010904//EN"
 "http://www.w3.org/TR/2001/REC-SVG-20010904/DTD/svg10.dtd">
<svg version="1.0" xmlns="http://www.w3.org/2000/svg"
 width="26.000000pt" height="26.000000pt" viewBox="0 0 26.000000 26.000000"
 preserveAspectRatio="xMidYMid meet">

<g transform="translate(0.000000,26.000000) scale(0.100000,-0.100000)"
fill="#000000" stroke="none">
<path d="M70 240 c-24 -24 -25 -51 -5 -91 16 -31 13 -49 -9 -49 -17 0 -56 -38
-56 -54 0 -17 51 -36 96 -36 32 0 32 1 27 39 -4 26 1 53 16 86 11 26 21 56 21
66 0 23 -34 59 -55 59 -8 0 -24 -9 -35 -20z"/>
<path d="M155 105 c-31 -31 -31 -49 0 -80 31 -31 49 -31 80 0 31 31 31 49 0
80 -31 31 -49 31 -80 0z m63 -42 c-10 -2 -28 -2 -40 0 -13 2 -5 4 17 4 22 1
32 -1 23 -4z"/>
</g>
</svg>
