<?xml version="1.0" standalone="no"?>
<!DOCTYPE svg PUBLIC "-//W3C//DTD SVG 20010904//EN"
 "http://www.w3.org/TR/2001/REC-SVG-20010904/DTD/svg10.dtd">
<svg version="1.0" xmlns="http://www.w3.org/2000/svg"
 width="16.000000pt" height="16.000000pt" viewBox="0 0 16.000000 16.000000"
 preserveAspectRatio="xMidYMid meet">

<g transform="translate(0.000000,16.000000) scale(0.100000,-0.100000)"
fill="#000000" stroke="none">
<path d="M39 144 c-10 -12 -10 -22 -2 -45 10 -26 9 -31 -13 -45 -35 -23 -30
-34 16 -34 22 0 49 -6 60 -12 33 -21 80 26 53 53 -5 5 -9 -3 -8 -19 0 -22 -4
-27 -25 -27 -21 0 -25 5 -25 27 1 14 -4 24 -9 21 -6 -4 -6 1 -2 13 14 35 16
57 5 71 -15 17 -34 16 -50 -3z"/>
</g>
</svg>
